<svg aria-hidden="true" style="position: absolute; width: 0; height: 0; overflow: hidden;" version="1.1" xmlns="http://www.w3.org/2000/svg" xmlns:xlink="http://www.w3.org/1999/xlink">
<defs>
<symbol id="icon-align-justify" viewBox="0 0 24 24">
<path d="M21 9h-18c-0.552 0-1 0.448-1 1s0.448 1 1 1h18c0.552 0 1-0.448 1-1s-0.448-1-1-1zM21 5h-18c-0.552 0-1 0.448-1 1s0.448 1 1 1h18c0.552 0 1-0.448 1-1s-0.448-1-1-1zM21 13h-18c-0.552 0-1 0.448-1 1s0.448 1 1 1h18c0.552 0 1-0.448 1-1s-0.448-1-1-1zM21 17h-18c-0.552 0-1 0.448-1 1s0.448 1 1 1h18c0.552 0 1-0.448 1-1s-0.448-1-1-1z"></path>
</symbol>
</defs>
</svg>
